PathFileType	4	(X/Y/Z)	Patient4_TMGait_0pt8_01_left_19.trc.trc
DataRate	CameraRate	NumFrames	NumMarkers	Units	OrigDataRate	OrigDataStartFrame	OrigNumFrames
88.050314465409	88.050314465409	5	33	mm	88.050314465409	36	       141
Frame#	Time	Sacral			L.Shoulder			Chest			R.Shoulder			Neck			R.ASIS			L.ASIS			R.Thigh.Superior			R.Thigh.Lateral			R.Thigh.Inferior			R.Patella			L.Thigh.Superior			L.Thigh.Lateral			L.Thigh.Inferior			L.Patella			L.Shank.Superior			L.Shank.Lateral			L.Shank.Inferior			R.Shank.Superior			R.Shank.Lateral			R.Shank.Inferior			R.Heel			R.Midfoot.Superior			R.Midfoot.Lateral			R.Toe			L.Heel			L.Midfoot.Lateral			L.Midfoot.Superior			L.Toe			L.Elbow			L.Wrist			R.Elbow			R.Wrist			
		X1	Y1	Z1	X2	Y2	Z2	X3	Y3	Z3	X4	Y4	Z4	X5	Y5	Z5	X6	Y6	Z6	X7	Y7	Z7	X8	Y8	Z8	X9	Y9	Z9	X10	Y10	Z10	X11	Y11	Z11	X12	Y12	Z12	X13	Y13	Z13	X14	Y14	Z14	X15	Y15	Z15	X16	Y16	Z16	X17	Y17	Z17	X18	Y18	Z18	X19	Y19	Z19	X20	Y20	Z20	X21	Y21	Z21	X22	Y22	Z22	X23	Y23	Z23	X24	Y24	Z24	X25	Y25	Z25	X26	Y26	Z26	X27	Y27	Z27	X28	Y28	Z28	X29	Y29	Z29	X30	Y30	Z30	X31	Y31	Z31	X32	Y32	Z32	X33	Y33	Z33	

36	20.927500000000	918.852282175641	996.813296535361	469.403847553365	1072.147875113066	1420.820960978261	276.355502320876	1191.907191798005	1357.437866701004	428.072956322543	1122.461784835956	1434.927677616569	606.841751845032	1078.145219369465	1483.287836476602	430.565791046387	1145.975566861085	927.514298540138	576.622499948296	1126.665375608613	950.875610654241	303.998299278523	1150.911733864017	712.766455777001	556.374171942640	1051.001961378579	616.236330884622	619.034318088100	1121.326583295115	546.994401431393	547.127263980339	1098.175887976616	443.871745506138	564.433466814137	1206.639178780713	766.384901486027	341.788509717309	1148.252414737754	635.724618022492	273.514356449105	1246.728568896647	575.175434312514	338.551800981041	1261.713052094870	504.512217651710	345.563382011717	1242.599399766307	428.569680915512	336.653284823800	1167.758866026676	305.089074882734	284.117805352864	1232.592879055816	199.623349972598	352.870502991384	1022.661961913458	378.578519837455	569.534104120107	903.372649412191	331.217491015416	626.775416997197	895.441701601388	222.576574959442	574.052410947777	697.998490250507	130.927902043963	539.410248024864	871.871286907857	110.116841642780	587.732270939273	764.548506776075	86.137999099282	615.354587801217	956.379833230895	35.400904996991	617.199672250166	1118.248459364390	39.002259448129	393.223586353753	1191.879541245405	36.881105431056	311.939432873316	1274.219375170790	98.476301568049	339.234761138302	1402.705010166911	48.322770115098	310.171354686966	931.101873561925	1095.440178842337	197.243788759680	856.478182897782	848.394188584628	218.444386641353	1285.585056335666	1140.088957342281	720.612271755405	1462.834201412753	1290.023968368649	632.357596608246	
37	20.938857142857	918.323548539662	998.308575370771	466.020720939149	1072.850247309035	1422.940392225647	274.759537375227	1191.848155289918	1359.134142037704	426.905455304746	1121.422017685505	1436.135443380651	605.591813428733	1078.185635267877	1485.018831853919	429.098253962481	1145.097358309383	928.942637465075	573.704439176402	1126.899378055660	952.881907281370	301.298744882100	1154.690683908640	715.109091671823	554.434434117490	1057.416555054742	616.779207173104	617.629371493782	1130.225909085475	548.460683548918	546.620713112335	1108.270132300997	443.898061201767	565.365403943743	1205.893595515150	766.460385077951	338.551191744407	1145.105462589140	635.944898477487	271.907826721356	1242.905266138098	574.501986145842	336.995640348422	1257.122906999501	503.990085040510	344.864617406876	1237.324216688224	428.069809751192	335.962095974629	1161.322756931356	305.287704783935	283.725704351568	1224.858303810110	199.362178518798	352.810773595178	1030.627586029687	379.545100595497	570.099788213437	909.144621636571	336.766304460195	626.460951893922	898.294076578440	227.888357996810	575.039246812334	698.256996875332	146.080612375822	539.632537148548	869.959364882071	113.437658048135	588.713650974536	761.245179011381	96.426675333282	615.433895208276	947.738341083198	34.185436219869	617.161001600838	1109.181570017474	38.890465159989	393.160917878820	1182.798736624900	36.937543533603	311.891232164390	1265.081303980054	98.596098667151	339.273509760654	1393.573468880887	48.622771993726	310.049089183953	938.402255664686	1094.424088870061	192.788479207278	872.353064766441	844.632326239385	213.294064280573	1273.997830476139	1134.424219975274	720.855688262818	1456.118917899340	1278.658081113250	632.965858863689	
38	20.950214285714	917.635196103053	999.781640239027	462.680445268923	1073.564960717412	1425.078972182011	273.232868725104	1191.696276960200	1360.800997269324	425.861596296576	1120.159095634630	1437.257644192953	604.432118088168	1078.107416883006	1486.710981362615	427.709661580691	1144.090703844821	930.339669963849	570.896792076126	1126.974853870601	954.783625525209	298.716537878825	1158.755191976747	717.683193294823	552.766763463781	1064.222523683456	617.508029865255	616.403649837857	1139.537565090744	550.264831690141	546.215446577469	1118.893906366742	444.378211031073	566.083290146170	1204.642276085006	766.185901411913	335.408723796915	1141.447504774138	636.077024163843	270.283371471907	1238.470606377941	573.688330968402	335.511975320934	1251.856358731435	503.346069618806	344.070224285769	1231.426960919328	427.514493721703	335.149590840906	1154.357829895509	305.319836268935	283.341346701811	1216.846261553453	199.071907231088	352.705313554224	1039.335777144364	380.846811525595	570.475972778794	915.964868345770	342.536953385680	626.153324859901	902.157001184089	233.596544889733	575.925166018737	700.179112133521	162.087105113731	539.775538842053	868.874360572499	117.324184443267	589.626555291623	759.142468093613	107.698445249688	615.486100883762	939.381408816486	32.716756487581	617.208481734651	1100.058227503334	38.762680982963	393.148318473654	1173.658213661987	36.931856911775	311.884802269984	1255.905449262109	98.656219648153	339.316450610578	1384.413584996601	48.790896908699	309.960358821457	945.823503318158	1093.624107522780	188.282557381201	889.427846088417	841.125378720513	207.927030196443	1261.429376219195	1128.802622567229	720.980844822609	1449.502427925842	1265.787131912972	633.839327769999	
39	20.961571428571	916.773037916761	1001.180389078338	459.416373936501	1074.320409215097	1427.157290296735	271.765843231688	1191.459520949088	1362.370753936789	424.951400090489	1118.677930063986	1438.257300293586	603.353788722841	1077.928949140380	1488.317230359148	426.379339585023	1142.950468574140	931.673822087979	568.239147032180	1126.865252267431	956.536531951541	296.271832602195	1163.019595218817	720.485281728535	551.333912783968	1071.340418407503	618.456780144334	615.333103650956	1149.107822895420	552.437696308779	545.824266999037	1129.914398903710	445.332235544134	566.503881179870	1202.903214961782	765.640355882672	332.445975921924	1137.446044574355	636.185786634423	268.608612468730	1233.554164617984	572.802358174698	334.097800958629	1246.046664880874	502.620672197836	343.156704469196	1225.046631889646	426.925973379446	334.225222806537	1147.027706232867	305.220674579686	282.887096348624	1208.629915133184	198.761501715364	352.545190115893	1048.645316175966	382.516063683719	570.600661680500	923.720416228763	348.461044773672	625.823136403304	906.972128888688	239.627233520675	576.647139413018	703.765100758951	178.593358987057	539.815721640063	868.681416442395	121.770409552842	590.434112629470	758.348661484117	119.727892216678	615.488042972678	931.519400824198	31.104453135980	617.346095417573	1090.894508719150	38.635759226058	393.157075541110	1164.478598450417	36.876062146513	311.896156690920	1246.716407218411	98.657775087552	339.349013590671	1375.244162996521	48.825186005070	309.901171344399	953.308788776152	1092.997260117572	183.767352775067	907.569665932136	837.974306171263	202.351913177425	1247.996619426705	1123.315621616214	720.924333758742	1442.936199383215	1251.380615963966	634.967768682160	
40	20.972928571429	915.730968853497	1002.471625743161	456.251087800098	1075.131376295783	1429.114447760684	270.355678538538	1191.142826888523	1363.792070493460	424.181401152162	1116.992602121826	1439.112274686846	602.347290277107	1077.671409892552	1489.807132222711	425.097367965985	1141.670110769964	932.929935592063	565.757521098665	1126.554525790299	958.115285079717	293.970235262008	1167.382352759891	723.518829749689	550.059741989777	1078.692016943550	619.665405975034	614.383161071769	1158.787432378663	555.014535912848	545.353450462031	1141.209988900195	446.778698622281	566.578212188916	1200.728348509787	764.915367241080	329.714331524344	1133.238275964567	636.312057704333	266.874991935646	1228.287537237712	571.896169884116	332.742379591917	1239.836952950918	501.849149053330	342.126334628812	1218.325906947630	426.323888554885	333.211218854665	1139.478549059740	305.030528922893	282.320304624794	1200.275876380825	198.439911514303	352.329544529235	1058.421972738053	384.581877808700	570.444230828564	932.278452146265	354.474857769759	625.439962043841	912.676636635652	245.894101202904	577.156292639760	708.945826987461	195.174944689279	539.729534577260	869.466826091170	126.730333367091	591.099959192885	758.949894018198	132.210238598282	615.415408004684	924.442971671926	29.526741315856	617.564033127154	1081.706874707398	38.521360207560	393.163922176303	1155.278355850193	36.785393998383	311.905854335550	1237.530281677294	98.611626886673	339.360133384875	1366.077578437680	48.746038512223	309.862435952574	960.826803342065	1092.495259549693	179.276234106968	926.660136153799	835.271778365610	196.584262271021	1233.842215764408	1118.051205021598	720.632136123342	1436.336249118040	1235.408316640848	636.347334233656	
